<svg aria-hidden="true" style="position: absolute; width: 0; height: 0; overflow: hidden;" version="1.1" xmlns="http://www.w3.org/2000/svg" xmlns:xlink="http://www.w3.org/1999/xlink">
	<defs>
		<symbol id="icon-burger-menu" viewBox="0 0 47 32">
			<path stroke-linejoin="round" stroke-linecap="round" stroke-miterlimit="4" stroke-width="4.3636" d="M1.961 29.16h42.976M1.961 15.618h42.976M1.961 2.076h42.976">
			</path>
		</symbol>
		<symbol id="icon-arrow" viewBox="0 0 32 32">
			<path d="M16.95 17.87c-0.242 0.244-0.576 0.394-0.946 0.394s-0.705-0.151-0.946-0.394l-0-0-6.11-6.12c-0.244-0.264-0.593-0.428-0.979-0.428-0.737 0-1.334 0.597-1.334 1.334 0 0.384 0.162 0.73 0.421 0.973l0.001 0.001 6.12 6.122c0.724 0.723 1.723 1.17 2.827 1.17s2.104-0.447 2.828-1.17l6.12-6.122c0.239-0.241 0.387-0.573 0.387-0.94 0-0.737-0.597-1.334-1.334-1.334-0.37 0-0.705 0.151-0.946 0.394l-0 0-6.109 6.12z">
			</path>
		</symbol>
		<symbol id="icon-close" viewBox="0 0 32 32">
			<path stroke-linejoin="round" stroke-linecap="round" stroke-miterlimit="4" stroke-width="2.9091" d="M24.005 8.002l-16.003 16.003">
			</path>
			<path stroke-linejoin="round" stroke-linecap="round" stroke-miterlimit="4" stroke-width="2.9091" d="M8.002 8.002l16.003 16.003">
			</path>
		</symbol>
		<symbol id="icon-spoon" viewBox="0 0 32 32">
			<path fill="#fd9222" style="fill: var(--color1, #fd9222)" d="M15.455 14.11c-0.732-0.884-1.176-2.029-1.176-3.279 0-0.001 0-0.003 0-0.004v0c0-4.325 5.181-8.644 10.365-8.644 2.862 0.001 5.182 2.321 5.182 5.183v0c0 5.183-4.319 10.367-8.648 10.367-0.001 0-0.002 0-0.003 0-1.25 0-2.395-0.445-3.288-1.184l0.009 0.007-12.763 12.765c-0.307 0.283-0.719 0.457-1.172 0.457-0.956 0-1.73-0.775-1.73-1.73 0-0.453 0.174-0.865 0.459-1.173l-0.001 0.001 12.766-12.765z">
			</path>
		</symbol>
		<symbol id="icon-coin" viewBox="0 0 32 32">
			<path fill="#fd9222" style="fill: var(--color1, #fd9222)" d="M16.004 2.668c-7.336 0-13.338 6.002-13.338 13.337s6.002 13.337 13.338 13.337c7.335 0 13.337-6.002 13.337-13.337s-6.002-13.337-13.337-13.337zM16.004 26.674c-5.869 0-10.67-4.801-10.67-10.67s4.801-10.67 10.67-10.67c5.868 0 10.669 4.801 10.669 10.67s-4.801 10.67-10.669 10.67z">
			</path>
			<path fill="#fd9222" style="fill: var(--color1, #fd9222)" d="M17.738 14.671h-3.467c-0.667 0-1.2-0.534-1.2-1.2 0-0.667 0.533-1.2 1.2-1.2h4.934c0.8 0 1.333-0.534 1.333-1.334s-0.533-1.333-1.333-1.333h-1.868v-1.2c0-0.8-0.533-1.333-1.333-1.333s-1.333 0.533-1.333 1.333v1.2h-0.4c-2.136 0.002-3.866 1.732-3.868 3.868v0c0.002 2.135 1.733 3.865 3.868 3.867h3.334c0.667 0 1.2 0.534 1.2 1.2s-0.533 1.2-1.2 1.2h-4.934c-0.8 0-1.334 0.534-1.334 1.334s0.534 1.333 1.334 1.333h2.001v1.2c0 0.8 0.533 1.333 1.333 1.333s1.333-0.533 1.333-1.333v-1.2h0.4c2.136-0.002 3.866-1.732 3.868-3.868v-0c-0.002-2.135-1.733-3.865-3.868-3.867h-0z">
			</path>
		</symbol>
		<symbol id="icon-chocolate" viewBox="0 0 32 32">
			<path fill="#000" style="fill: var(--color2, #000)" d="M13.826 2.414l7.529 7.538 0.080-0.080c0.154-0.151 0.366-0.244 0.599-0.244 0.227 0 0.433 0.088 0.586 0.232l-0-0 0.873 0.873c0.305 0.305 0.315 0.77 0.083 1.094l-0.004 0.007-0.143 0.192 6.162 6.162c0.55 0.55 0.55 1.43 0 1.981l-9.433 9.433c-0.55 0.55-1.43 0.55-1.981 0l-4.448-4.448c-0.155 0.195-0.393 0.319-0.66 0.319-0.233 0-0.444-0.095-0.597-0.248l-2.601-2.601c-0.151-0.154-0.244-0.366-0.244-0.599 0-0.227 0.088-0.433 0.232-0.586l-0 0 0.006-0.007 0.077-0.076-7.529-7.529c-0.55-0.55-0.55-1.43 0-1.981l9.433-9.433c0.55-0.55 1.43-0.55 1.981 0v0.001zM20.41 10.896l-1.756-1.755c-0.108-0.111-0.258-0.18-0.425-0.18s-0.317 0.069-0.425 0.18l-3.581 3.581c-0.111 0.11-0.179 0.262-0.179 0.43s0.068 0.32 0.179 0.43l1.749 1.749 0.61-0.61-1.565-1.565 3.211-3.221 1.569 1.574 0.613-0.613zM15.332 15.969l-1.755-1.755c-0.108-0.111-0.258-0.18-0.425-0.18s-0.317 0.069-0.425 0.18l-3.591 3.591c-0.24 0.23-0.24 0.61 0 0.85l1.752 1.753 0.616-0.616-1.57-1.564 3.221-3.211 1.564 1.563 0.612-0.611zM8.824 8.195l3.581 3.581c0.24 0.24 0.62 0.24 0.85-0.010l3.581-3.581c0.111-0.106 0.18-0.255 0.18-0.42 0-0 0-0 0-0v0h0.010c0-0.15-0.060-0.31-0.18-0.43l-3.581-3.581c-0.11-0.111-0.262-0.18-0.43-0.18s-0.32 0.069-0.43 0.18l-0 0-3.581 3.591c-0.24 0.23-0.24 0.61 0 0.85zM3.753 13.267l3.581 3.581c0.24 0.24 0.62 0.24 0.85 0l3.581-3.581c0.111-0.106 0.18-0.255 0.18-0.42 0-0.004-0-0.007-0-0.010v0.001h0.010c0-0.16-0.060-0.31-0.18-0.43l-3.581-3.581c-0.108-0.111-0.258-0.18-0.425-0.18s-0.317 0.069-0.425 0.18l-3.591 3.591c-0.24 0.23-0.24 0.61 0 0.85zM10.688 22.023l2.363 2.364 9.639-13.044-0.655-0.655-11.346 11.335z">
			</path>
			<path fill="#fd9222" style="fill: var(--color1, #fd9222)" d="M13.826 2.414l7.529 7.538 0.080-0.080c0.154-0.151 0.366-0.244 0.599-0.244 0.227 0 0.433 0.088 0.586 0.232l-0-0 0.873 0.873c0.305 0.305 0.315 0.77 0.083 1.094l-0.004 0.007-0.143 0.192 6.162 6.162c0.55 0.55 0.55 1.43 0 1.981l-9.433 9.433c-0.55 0.55-1.43 0.55-1.981 0l-4.448-4.448c-0.155 0.195-0.393 0.319-0.66 0.319-0.233 0-0.444-0.095-0.597-0.248l-2.601-2.601c-0.151-0.154-0.244-0.366-0.244-0.599 0-0.227 0.088-0.433 0.232-0.586l-0 0 0.006-0.007 0.077-0.076-7.529-7.529c-0.55-0.55-0.55-1.43 0-1.981l9.433-9.433c0.55-0.55 1.43-0.55 1.981 0v0.001zM20.41 10.896l-1.756-1.755c-0.108-0.111-0.258-0.18-0.425-0.18s-0.317 0.069-0.425 0.18l-3.581 3.581c-0.111 0.11-0.179 0.262-0.179 0.43s0.068 0.32 0.179 0.43l1.749 1.749 0.61-0.61-1.565-1.565 3.211-3.221 1.569 1.574 0.613-0.613zM15.332 15.969l-1.755-1.755c-0.108-0.111-0.258-0.18-0.425-0.18s-0.317 0.069-0.425 0.18l-3.591 3.591c-0.24 0.23-0.24 0.61 0 0.85l1.752 1.753 0.616-0.616-1.57-1.564 3.221-3.211 1.564 1.563 0.612-0.611zM8.824 8.195l3.581 3.581c0.24 0.24 0.62 0.24 0.85-0.010l3.581-3.581c0.111-0.106 0.18-0.255 0.18-0.42 0-0 0-0 0-0v0h0.010c0-0.15-0.060-0.31-0.18-0.43l-3.581-3.581c-0.11-0.111-0.262-0.18-0.43-0.18s-0.32 0.069-0.43 0.18l-0 0-3.581 3.591c-0.24 0.23-0.24 0.61 0 0.85zM3.753 13.267l3.581 3.581c0.24 0.24 0.62 0.24 0.85 0l3.581-3.581c0.111-0.106 0.18-0.255 0.18-0.42 0-0.004-0-0.007-0-0.010v0.001h0.010c0-0.16-0.060-0.31-0.18-0.43l-3.581-3.581c-0.108-0.111-0.258-0.18-0.425-0.18s-0.317 0.069-0.425 0.18l-3.591 3.591c-0.24 0.23-0.24 0.61 0 0.85zM10.688 22.023l2.363 2.364 9.639-13.044-0.655-0.655-11.346 11.335z">
			</path>
		</symbol>
		<symbol id="icon-twitter" viewBox="0 0 32 32">
			<path stroke-linejoin="round" stroke-linecap="round" stroke-miterlimit="4" stroke-width="2.6667" d="M30.667 4c-1.2 0.856-2.591 1.552-4.084 2.013l-0.103 0.027c-1.101-1.261-2.712-2.053-4.507-2.053-3.299 0-5.973 2.674-5.973 5.973 0 0.028 0 0.056 0.001 0.084l-0-0.004v1.333c-0.109 0.003-0.238 0.005-0.367 0.005-2.331 0-4.53-0.561-6.471-1.555l0.080 0.037c-2.093-1.053-4.56-3.563-5.908-5.48 0 0-4.667 12.953 7.333 18.287-2.442 1.677-5.462 2.679-8.716 2.679-0.217 0-0.433-0.004-0.648-0.013l0.031 0.001c12 6.667 26.667 0 26.667-15.333 0-0.372-0.037-0.741-0.107-1.107 1.323-1.305 2.293-2.963 2.758-4.822l0.015-0.071z">
			</path>
		</symbol>
		<symbol id="icon-instagram" viewBox="0 0 32 32">
			<path stroke-linejoin="round" stroke-linecap="round" stroke-miterlimit="4" stroke-width="2.6667" d="M22.667 2.667h-13.333c-3.682 0-6.667 2.985-6.667 6.667v0 13.333c0 3.682 2.985 6.667 6.667 6.667v0h13.333c3.682 0 6.667-2.985 6.667-6.667v0-13.333c0-3.682-2.985-6.667-6.667-6.667v0z">
			</path>
			<path stroke-linejoin="round" stroke-linecap="round" stroke-miterlimit="4" stroke-width="2.6667" d="M21.333 15.16c0.042 0.251 0.066 0.54 0.066 0.834 0 2.946-2.388 5.333-5.333 5.333-2.688 0-4.911-1.988-5.28-4.574l-0.003-0.028c-0.032-0.22-0.050-0.473-0.050-0.731 0-2.946 2.388-5.333 5.333-5.333 2.651 0 4.85 1.934 5.264 4.468l0.004 0.031z">
			</path>
			<path stroke-linejoin="round" stroke-linecap="round" stroke-miterlimit="4" stroke-width="2.6667" d="M21.333 15.16c0.042 0.251 0.066 0.54 0.066 0.834 0 2.946-2.388 5.333-5.333 5.333-2.688 0-4.911-1.988-5.28-4.574l-0.003-0.028c-0.032-0.22-0.050-0.473-0.050-0.731 0-2.946 2.388-5.333 5.333-5.333 2.651 0 4.85 1.934 5.264 4.468l0.004 0.031zM23.333 8.667h0.013M23.333 8.667h0.013">
			</path>
		</symbol>
		<symbol id="icon-chocolate-logo" viewBox="0 0 32 32">
			<path fill="#fcf1e0" style="fill: var(--color3, #fcf1e0)" d="M3.944 20.076l10.777-17.424 0.64-0.675 8.235 5.491 0.057 3.315 2.009 3.28-8.88 14.076-12.839-8.063z">
			</path>
			<path fill="none" stroke="#fd9222" style="stroke: var(--color1, #fd9222)" stroke-linejoin="round" stroke-linecap="round" stroke-miterlimit="4" stroke-width="2.6667" d="M21.635 23.88l-14.187-8.864M11.361 8.599l14.185 8.864M10.629 25.864l11.736-19.249M27.176 14.788c-3.040-1.899-4.233-3.383-2.277-6.591l-9.627-6.016-11.735 19.251 14.187 8.864 9.453-15.507z">
			</path>
		</symbol>
		<symbol id="icon-mastercard" viewBox="0 0 49 32">
			<path fill="#fafafa" style="fill: var(--color1, #fafafa)" d="M6.095 0.762h36.571c2.946 0 5.333 2.388 5.333 5.333v19.81c0 2.946-2.388 5.333-5.333 5.333h-36.571c-2.946 0-5.333-2.388-5.333-5.333v-19.81c0-2.946 2.388-5.333 5.333-5.333z">
			</path>
			<path fill="#ed0006" style="fill: var(--color2, #ed0006)" d="M24.381 23.29c-1.771 1.462-4.068 2.345-6.578 2.345-5.601 0-10.141-4.396-10.141-9.818s4.54-9.818 10.141-9.818c2.51 0 4.807 0.883 6.578 2.345 1.771-1.462 4.068-2.345 6.578-2.345 5.601 0 10.141 4.395 10.141 9.818s-4.54 9.818-10.141 9.818c-2.51 0-4.807-0.883-6.578-2.345z">
			</path>
			<path fill="#f9a000" style="fill: var(--color3, #f9a000)" d="M24.381 23.29c2.18-1.801 3.563-4.48 3.563-7.472s-1.383-5.672-3.563-7.472c1.771-1.462 4.068-2.345 6.578-2.345 5.601 0 10.141 4.395 10.141 9.818s-4.54 9.818-10.141 9.818c-2.51 0-4.807-0.883-6.578-2.345z">
			</path>
			<path fill="#ff5e00" style="fill: var(--color4, #ff5e00)" d="M24.381 23.29c2.18-1.801 3.563-4.48 3.563-7.472s-1.383-5.671-3.563-7.472c-2.18 1.801-3.563 4.48-3.563 7.472s1.383 5.672 3.563 7.472z">
			</path>
			<path fill="none" stroke="#fafafa" style="stroke: var(--color1, #fafafa)" stroke-linejoin="miter" stroke-linecap="butt" stroke-miterlimit="4" stroke-width="1.5238" d="M6.095 0.762h36.571c2.946 0 5.333 2.388 5.333 5.333v19.81c0 2.946-2.388 5.333-5.333 5.333h-36.571c-2.946 0-5.333-2.388-5.333-5.333v-19.81c0-2.946 2.388-5.333 5.333-5.333z">
			</path>
		</symbol>
		<symbol id="icon-flag" viewBox="0 0 40 32">
			<path fill="#ffd700" style="fill: var(--color4, #ffd700)" d="M40.209 0.495h-39.902v29.695h39.902v-29.695z">
			</path>
			<path fill="#0057b7" style="fill: var(--color5, #0057b7)" d="M0.307 0.495h39.902v14.847h-39.902v-14.847z">
			</path>
		</symbol>
	</defs>
</svg>
